<svg xmlns="http://www.w3.org/2000/svg" viewBox="0 0 420 460" role="img" aria-label="The Gully Amateur Sports Network logo">
  <defs>
    <linearGradient id="roadGlow" x1="0" x2="1" y1="0" y2="1">
      <stop offset="0" stop-color="#ff9d2f"/>
      <stop offset="1" stop-color="#f57c00"/>
    </linearGradient>
  </defs>

  <g transform="translate(88 18)">
    <path d="M122 0C92 0 51 19 25 56c-20 28-26 64-19 110 14 83 63 143 116 175 53-32 102-92 116-175 8-46 1-82-19-110C193 19 152 0 122 0z" fill="#00588c"/>
    <path d="M122 13c-26 0-63 17-86 49-18 25-23 57-16 98 12 74 56 129 102 159 46-30 90-85 102-159 7-41 2-73-16-98-23-32-60-49-86-49z" fill="#ffffff"/>
    <path d="M122 29c-22 0-55 14-76 41-16 22-20 50-14 87 11 66 50 114 90 141 40-27 79-75 90-141 6-37 2-65-14-87-21-27-54-41-76-41z" fill="none" stroke="#ff7a00" stroke-width="8"/>

    <circle cx="122" cy="64" r="20" fill="#f57c00"/>
    <path d="M102 64h40M122 44v40M108 52c10 7 20 7 28 0M108 76c8-7 18-7 28 0" stroke="#ffffff" stroke-width="2.4" fill="none" stroke-linecap="round"/>

    <circle cx="122" cy="114" r="24" fill="#0a5f8b"/>
    <circle cx="122" cy="114" r="21" fill="#ffffff"/>
    <polygon points="122,94 130,107 145,107 133,117 138,132 122,123 106,132 111,117 99,107 114,107" fill="#0a5f8b"/>

    <g stroke="#0a5f8b" stroke-width="4" fill="none" stroke-linecap="round">
      <circle cx="78" cy="82" r="16"/>
      <circle cx="166" cy="82" r="16"/>
      <path d="M62 108l43 43"/>
      <path d="M182 108l-43 43"/>
    </g>

    <path d="M96 200c30-41 54-69 87-89l5 8c-26 15-49 38-79 80-3 4-8 5-12 2s-5-8-1-11z" fill="#0a5f8b"/>
    <path d="M92 246c-12 0-20-10-17-22 6-23 22-44 45-63 22-18 50-34 80-48l7 14c-29 14-55 30-75 45-20 16-34 34-40 53h103v16H92z" fill="url(#roadGlow)"/>
    <path d="M125 168l9 6-5 8-9-6zM113 187l9 6-5 8-9-6zM101 206l9 6-5 8-9-6z" fill="#ffffff"/>
  </g>

  <g text-anchor="middle" font-family="Segoe UI, Arial, sans-serif">
    <text x="210" y="366" font-size="29" font-weight="700" fill="#0a5f8b">THE GULLY</text>
    <text x="210" y="396" font-size="18" font-weight="700" letter-spacing="1.8" fill="#f57c00">AMATEUR SPORTS NETWORK</text>
  </g>
</svg>
